<svg width="182" height="182" viewBox="0 0 182 182" fill="none" xmlns="http://www.w3.org/2000/svg">
<path d="M91.1401 110.37C112.381 110.37 129.6 93.1508 129.6 71.91C129.6 50.6691 112.381 33.45 91.1401 33.45C69.8992 33.45 52.6801 50.6691 52.6801 71.91C52.6801 93.1508 69.8992 110.37 91.1401 110.37Z" fill="#E5E5E5"/>
<path d="M91.16 177.32C138.745 177.32 177.32 138.745 177.32 91.16C177.32 43.5751 138.745 5 91.16 5C43.5751 5 5 43.5751 5 91.16C5 138.745 43.5751 177.32 91.16 177.32Z" stroke="#E5E5E5" stroke-width="9" stroke-miterlimit="10"/>
<path d="M33.3799 147.97C31.8299 142.59 33.31 137.71 34.02 135.36C34.26 134.54 37.68 123.75 47.89 119.19C50.7903 117.914 53.9123 117.218 57.08 117.14C82.3 116.14 123.8 116.14 123.8 116.14C123.8 116.14 129.54 117.37 131.29 117.84C136.986 119.913 141.791 123.891 144.89 129.1C149.76 137.57 148.89 149.03 148.89 149.03C148.37 149.69 147.63 150.57 146.72 151.59C144.392 154.204 141.827 156.597 139.06 158.74C137.38 160 135.35 161.31 129.36 164.1C124.723 166.396 119.947 168.4 115.06 170.1C103.13 173.94 92.4499 173.27 85.6999 172.78C76.9314 172.163 68.2932 170.315 60.0399 167.29C48.5799 162.97 36.3899 158.47 33.3799 147.97Z" fill="#E5E5E5"/>
</svg>
