<svg width="74" height="74" viewBox="0 0 74 74" fill="none" xmlns="http://www.w3.org/2000/svg">
<path d="M36.9926 44.1346C44.8815 44.1346 51.2767 37.7394 51.2767 29.8505C51.2767 21.9616 44.8815 15.5664 36.9926 15.5664C29.1037 15.5664 22.7085 21.9616 22.7085 29.8505C22.7085 37.7394 29.1037 44.1346 36.9926 44.1346Z" fill="#121212"/>
<path d="M37 69C54.6731 69 69 54.6731 69 37C69 19.3269 54.6731 5 37 5C19.3269 5 5 19.3269 5 37C5 54.6731 19.3269 69 37 69Z" stroke="#121212" stroke-width="9" stroke-miterlimit="10"/>
<path d="M15.5404 58.0993C14.9647 56.1012 15.5144 54.2887 15.7781 53.4159C15.8673 53.1114 17.1374 49.104 20.9295 47.4104C22.0067 46.9365 23.1662 46.6778 24.3426 46.649C33.7094 46.2776 49.1226 46.2776 49.1226 46.2776C49.1226 46.2776 51.2544 46.7344 51.9044 46.909C54.02 47.6787 55.8045 49.1562 56.9555 51.091C58.7642 54.2367 58.4411 58.493 58.4411 58.493C58.2479 58.7381 57.9731 59.065 57.6351 59.4438C56.7704 60.4144 55.818 61.3034 54.7902 62.0993C54.1662 62.5673 53.4123 63.0538 51.1876 64.09C49.4654 64.9428 47.6916 65.687 45.8765 66.3184C41.4457 67.7446 37.4791 67.4958 34.9722 67.3138C31.7155 67.0848 28.5073 66.3984 25.442 65.2748C21.1857 63.6703 16.6583 61.999 15.5404 58.0993Z" fill="#121212"/>
</svg>
