<svg width="20" height="22" viewBox="0 0 20 22" fill="none" xmlns="http://www.w3.org/2000/svg">
<path d="M17.5 9.33333C17.5 15.1667 10 20.1667 10 20.1667C10 20.1667 2.5 15.1667 2.5 9.33333C2.5 7.34421 3.29018 5.43655 4.6967 4.03003C6.10322 2.62351 8.01088 1.83333 10 1.83333C11.9891 1.83333 13.8968 2.62351 15.3033 4.03003C16.7098 5.43655 17.5 7.34421 17.5 9.33333Z" stroke="black" stroke-width="2" stroke-linecap="round" stroke-linejoin="round"/>
<path d="M10 11.8333C11.3807 11.8333 12.5 10.714 12.5 9.33333C12.5 7.95262 11.3807 6.83333 10 6.83333C8.61929 6.83333 7.5 7.95262 7.5 9.33333C7.5 10.714 8.61929 11.8333 10 11.8333Z" stroke="black" stroke-width="2" stroke-linecap="round" stroke-linejoin="round"/>
</svg>
